<svg xmlns="http://www.w3.org/2000/svg" xmlns:xlink="http://www.w3.org/1999/xlink" width="606.178" height="256" viewBox="0 0 606.178 256">
  <defs>
    <style>
      .cls-1 {
        fill: #1a1311;
      }

      .cls-2 {
        fill: #fff;
      }

      .cls-3 {
        fill: #f5f5f5;
      }

      .cls-4 {
        filter: url(#배경);
      }
    </style>
    <filter id="배경" x="41.965" y="45.245" width="172.07" height="171.51" filterUnits="userSpaceOnUse">
      <feOffset dy="3" input="SourceAlpha"/>
      <feGaussianBlur stdDeviation="3" result="blur"/>
      <feFlood flood-opacity="0.329"/>
      <feComposite operator="in" in2="blur"/>
      <feComposite in="SourceGraphic"/>
    </filter>
  </defs>
  <g id="logo_with_text" transform="translate(-811.806 -167)">
    <g id="logo">
      <circle id="Ellipse_3" data-name="Ellipse 3" class="cls-1" cx="128" cy="128" r="128" transform="translate(811.806 167)"/>
      <g id="icon" transform="translate(862.771 218.245)">
        <g class="cls-4" transform="matrix(1, 0, 0, 1, -50.97, -51.25)">
          <path id="배경-2" data-name="배경" class="cls-2" d="M95.151,77.695a15.039,15.039,0,0,0-7.719,27.952l1.479.886L87.857,107.9a68.039,68.039,0,0,0-14.41,42,68.8,68.8,0,0,0,24.3,52.362l.437.372.149,1.007c.063.432.123.866.212,1.323,2,10.382,6.29,17.825,12.748,22.118a26.02,26.02,0,0,0,14.658,4.126c-3.367-3.178-5.262-7.833-5.647-13.891l-.141-2.209,2.116.649a68.331,68.331,0,0,0,20.031,3H158.66a68.935,68.935,0,0,0,68.857-68.857,68.04,68.04,0,0,0-14.442-42.038l-1.049-1.355,1.468-.89a15.039,15.039,0,0,0-7.782-27.915A15.1,15.1,0,0,0,191.6,87.548l-.592,1.611-1.533-.775a67.773,67.773,0,0,0-30.818-7.351H142.305a67.775,67.775,0,0,0-30.9,7.394l-1.535.78-.592-1.618A15.1,15.1,0,0,0,95.151,77.695Z" transform="translate(-22.48 -26.45)"/>
        </g>
        <g id="눈" transform="translate(48.412 49.459)">
          <circle id="Ellipse_1" data-name="Ellipse 1" class="cls-1" cx="5.027" cy="5.027" r="5.027"/>
          <circle id="Ellipse_2" data-name="Ellipse 2" class="cls-1" cx="5.027" cy="5.027" r="5.027" transform="translate(47.192)"/>
        </g>
        <g id="코" transform="translate(45.93 64.367)">
          <g id="Group_9" data-name="Group 9" transform="translate(0 0)">
            <path id="Path_4" data-name="Path 4" class="cls-3" d="M150.459,118.312c17.021,0,30.867,6.98,30.867,24a30.865,30.865,0,1,1-61.731,0C119.6,125.292,133.44,118.312,150.459,118.312Zm0,50.345a26.379,26.379,0,0,0,26.349-26.348c0-14.527-11.821-19.478-26.349-19.478s-26.345,4.951-26.345,19.478A26.378,26.378,0,0,0,150.459,168.657Z" transform="translate(-119.595 -118.312)"/>
            <path id="Path_17" class="cls-3" d="M30.872,0C47.9,0,61.744,7,61.744,24.029A30.872,30.872,0,0,1,0,24.029C0,7,13.842,0,30.872,0Z" transform="translate(0 0)"/>
          </g>
          <path id="Path_3" data-name="Path 3" class="cls-1" d="M151.273,139.894c0,3.791-3.836,8.387-8.568,8.387s-8.567-4.6-8.567-8.387,3.836-4.663,8.567-4.663S151.273,136.1,151.273,139.894Z" transform="translate(-111.6 -126.498)"/>
        </g>
        <path id="귀-좌" class="cls-1" d="M17.135,4.663c0,3.791-3.836,8.387-8.568,8.387S0,8.453,0,4.663,3.836,0,8.567,0,17.135.871,17.135,4.663Z" transform="translate(17.666 4.731) rotate(30)"/>
        <path id="귀-우" class="cls-1" d="M17.135,8.387C17.135,4.6,13.3,0,8.567,0S0,4.6,0,8.387s3.836,4.663,8.567,4.663S17.135,12.178,17.135,8.387Z" transform="translate(142.93 16.032) rotate(150)"/>
      </g>
    </g>
    <g id="text" transform="translate(990.754 152.74)">
      <g id="Group_1" data-name="Group 1" transform="translate(106.862 36.778)">
        <path id="Path_1" data-name="Path 1" class="cls-1" d="M106.862,119.061v-68.7a12.649,12.649,0,0,1,12.651-12.649h.464a12.649,12.649,0,0,1,12.649,12.649V63.7h23.443V50.357a12.649,12.649,0,0,1,12.649-12.649h.236A12.649,12.649,0,0,1,181.6,50.357v68.7a12.649,12.649,0,0,1-12.649,12.649h-49.44A12.649,12.649,0,0,1,106.862,119.061ZM204.7,36.778h0a12.649,12.649,0,0,1,12.649,12.651v21.7h14.622v-21.7a12.649,12.649,0,0,1,12.649-12.651h0a12.649,12.649,0,0,1,12.649,12.651v120.58l-5.082,31.027A13.659,13.659,0,0,1,238.7,212.484h0a13.658,13.658,0,0,1-13.453-16.011l4.627-26.465H128.1a11.488,11.488,0,0,1-11.488-11.488h0A11.489,11.489,0,0,1,128.1,147.03H231.966v-51.3H217.344v23.792A12.649,12.649,0,0,1,204.7,132.174h0a12.649,12.649,0,0,1-12.651-12.649v-70.1A12.65,12.65,0,0,1,204.7,36.778ZM156.068,106.41v-18.1H132.625v18.1Z" transform="translate(-106.862 -36.778)"/>
        <path id="Path_2" data-name="Path 2" class="cls-1" d="M251.419,114.355V100.893A13.464,13.464,0,0,1,264.883,87.43h0a13.463,13.463,0,0,1,13.462,13.464v13.462h26.922l9.52-49.44H221.131A13.811,13.811,0,0,1,207.32,51.1h0A13.809,13.809,0,0,1,221.131,37.3H322.6a19.338,19.338,0,0,1,19.339,19.337v6.437a19.347,19.347,0,0,1-.349,3.657l-9.171,47.628h11.722a11.721,11.721,0,0,1,11.72,11.72h0a11.721,11.721,0,0,1-11.72,11.72H207.9a11.721,11.721,0,0,1-11.72-11.72h0a11.721,11.721,0,0,1,11.72-11.72Zm93.773,50.028v30.7a16.984,16.984,0,0,1-16.983,16.984H223.84a16.985,16.985,0,0,1-16.984-16.984v-30.7a13.821,13.821,0,0,1,13.822-13.82H331.372A13.819,13.819,0,0,1,345.192,164.383Zm-26,7.532H232.85v18.569h86.345Z" transform="translate(-35.498 -36.365)"/>
      </g>
      <g id="Group_2" data-name="Group 2" transform="translate(108.596 229.938)">
        <path id="Path_3-2" data-name="Path 3" class="cls-1" d="M130.3,166.371a8.393,8.393,0,0,1-2.614,6.579,9.9,9.9,0,0,1-6.879,2.351H107.826V144.3h12.458a10.027,10.027,0,0,1,7.03,2.326A8.226,8.226,0,0,1,129.864,153a7.2,7.2,0,0,1-1.308,4.226,6.4,6.4,0,0,1-2.522,2.177,7.3,7.3,0,0,1,2.83,2.22A7.68,7.68,0,0,1,130.3,166.371Zm-6.489-13.106a3.343,3.343,0,0,0-1.07-2.592,4.164,4.164,0,0,0-2.94-.98h-5.919v7.146H119.8a4.237,4.237,0,0,0,2.965-.959A3.375,3.375,0,0,0,123.812,153.265Zm.434,12.805a3.682,3.682,0,0,0-.955-2.659,4.1,4.1,0,0,0-3.1-1.132h-6.311V169.9h6.311a3.98,3.98,0,0,0,3.006-1.085A3.806,3.806,0,0,0,124.245,166.07Z" transform="translate(-107.826 -144.032)"/>
        <path id="Path_4-2" data-name="Path 4" class="cls-1" d="M159.388,175.3h-6.316l-1.83-5.487H140.227l-1.875,5.487h-6.318L143.317,144.3h4.744Zm-9.76-10.583-3.789-11.276-3.915,11.276Z" transform="translate(-88.484 -144.032)"/>
        <path id="Path_5" data-name="Path 5" class="cls-1" d="M179.964,175.3H159.536V144.3h20.428v5.4H165.591v7.277h12.237v5.4H165.591V169.9h14.372Z" transform="translate(-66.51 -144.032)"/>
        <path id="Path_6" data-name="Path 6" class="cls-1" d="M209.434,175.3h-7.056l-7.97-14.111L190.4,165.98V175.3h-6.055V144.3H190.4v13.5l10.931-13.5h7.361l-10.281,12.321Z" transform="translate(-46.686 -144.032)"/>
        <path id="Path_7" data-name="Path 7" class="cls-1" d="M233.159,162.668a19.379,19.379,0,0,1-.673,5.59,9.816,9.816,0,0,1-2.376,3.949,10.629,10.629,0,0,1-3.92,2.623,13.1,13.1,0,0,1-4.744.851,11.987,11.987,0,0,1-4.593-.871,11.383,11.383,0,0,1-3.769-2.528,9.71,9.71,0,0,1-2.7-5.312,46.144,46.144,0,0,1-.351-7.054,45.723,45.723,0,0,1,.351-7.011,9.906,9.906,0,0,1,2.7-5.357A11.408,11.408,0,0,1,216.806,145a11.876,11.876,0,0,1,4.64-.851,11.433,11.433,0,0,1,8.232,2.992,11.943,11.943,0,0,1,3.436,6.894h-6.1q-1.085-4.485-5.573-4.487a4.856,4.856,0,0,0-3.875,1.659,5.087,5.087,0,0,0-1.2,2.632,43.117,43.117,0,0,0-.281,6.077,45.709,45.709,0,0,0,.261,6.14,4.985,4.985,0,0,0,1.222,2.614,4.839,4.839,0,0,0,3.875,1.608,5.6,5.6,0,0,0,4.312-1.74,5.22,5.22,0,0,0,1.045-1.875,7.442,7.442,0,0,0,.345-2.267v-1.175h-5.7v-5.091h11.713Z" transform="translate(-26.163 -144.149)"/>
        <path id="Path_8" data-name="Path 8" class="cls-1" d="M258.8,159.915a45.1,45.1,0,0,1-.353,7.009,10,10,0,0,1-2.743,5.357,11,11,0,0,1-8.362,3.4,12.04,12.04,0,0,1-4.659-.851,11.545,11.545,0,0,1-3.744-2.547,9.7,9.7,0,0,1-2.7-5.312,46.08,46.08,0,0,1-.353-7.054,45.66,45.66,0,0,1,.353-7.011,9.891,9.891,0,0,1,2.7-5.357A11.4,11.4,0,0,1,242.661,145a13.123,13.123,0,0,1,9.3,0,11.342,11.342,0,0,1,3.744,2.547,9.9,9.9,0,0,1,2.7,5.311A43.183,43.183,0,0,1,258.8,159.915Zm-6.057,0a38.529,38.529,0,0,0-.306-6.057,5.471,5.471,0,0,0-1.216-2.652,4.868,4.868,0,0,0-3.879-1.659,5.452,5.452,0,0,0-2.242.437,4.815,4.815,0,0,0-1.675,1.222,5.085,5.085,0,0,0-1.2,2.632,42.754,42.754,0,0,0-.282,6.077,44.708,44.708,0,0,0,.263,6.115,4.987,4.987,0,0,0,5.136,4.247,4.87,4.87,0,0,0,3.879-1.653,5.724,5.724,0,0,0,1.2-2.745A37.311,37.311,0,0,0,252.741,159.915Z" transform="translate(-5.506 -144.149)"/>
        <path id="Path_9" data-name="Path 9" class="cls-1" d="M290.317,175.3h-6.055V157.23l-5.921,11.755h-4.095l-5.965-11.755V175.3h-6.055V144.3h5.944l8.067,16.765,8.025-16.765h6.055Z" transform="translate(15.539 -144.032)"/>
      </g>
    </g>
  </g>
</svg>
